<svg width="20" height="16" viewBox="0 0 20 16" fill="none" xmlns="http://www.w3.org/2000/svg">
<path d="M19.8289 7.55468L13.8293 0.888374C13.7013 0.747049 13.5226 0.667053 13.3333 0.667053H9.33352C9.07087 0.667053 8.83221 0.821711 8.72422 1.0617C8.61756 1.30302 8.66155 1.58434 8.83754 1.77899L14.4359 7.99999L8.83754 14.2197C8.66155 14.4156 8.61622 14.697 8.72422 14.9369C8.83221 15.1783 9.07087 15.3329 9.33352 15.3329H13.3333C13.5226 15.3329 13.7013 15.2516 13.8293 15.1129L19.8289 8.44663C20.0569 8.19331 20.0569 7.80667 19.8289 7.55468Z" fill="white"/>
<path d="M11.1628 7.55468L5.16314 0.888374C5.03514 0.747049 4.85649 0.667053 4.66716 0.667053H0.66738C0.404728 0.667053 0.166074 0.821711 0.0580799 1.0617C-0.048581 1.30302 -0.00458339 1.58434 0.171407 1.77899L5.76977 7.99999L0.171407 14.2197C-0.00458339 14.4156 -0.0499143 14.697 0.0580799 14.9369C0.166074 15.1783 0.404728 15.3329 0.66738 15.3329H4.66716C4.85649 15.3329 5.03514 15.2516 5.16314 15.1129L11.1628 8.44663C11.3908 8.19331 11.3908 7.80667 11.1628 7.55468Z" fill="white"/>
</svg>
